<svg   viewBox="0 0 16 16" width="16px" height="16px">
  <path fill="#828282"
     d="M 0.38652,15.6135 0,15.227 0,8 0,0.773 0.38652,0.3865 0.77304,0 8.06195,0 15.35086,0 15.67543,0.3246 16,0.6491 16,8 16,15.3509 15.67543,15.6754 15.35086,16 8.06195,16 0.77304,16 0.38652,15.6135 Z m 4.37381,-5.8284 0,-3.8347 -1.19008,0 -1.19008,0 0,3.8347 0,3.8347 1.19008,0 1.19008,0 0,-3.8347 z m 3.86121,1.4876 c 0.0596,-2.9175 0.29816,-3.471 1.49629,-3.471 0.97416,0 1.12184,0.4551 1.12184,3.4577 l 0,2.3604 1.20074,0 1.20073,0 -0.0437,-3.0743 C 13.55484,7.5508 13.54514,7.4558 13.22315,6.8828 12.41941,5.4525 10.09743,5.2775 8.82371,6.5512 l -0.36089,0.3609 0,-0.4808 0,-0.4809 -1.12397,0 -1.12396,0 0,3.8347 0,3.8347 1.17937,0 1.17938,0 0.0479,-2.3471 z M 4.57296,4.4856 C 5.61512,3.5065 4.60866,1.711 3.21268,2.0589 1.93484,2.3774 1.77101,4.2507 2.97521,4.7743 3.39901,4.9586 4.22909,4.8083 4.57296,4.4856 Z"/>
</svg>
